<?xml version="1.0" standalone="no"?>
<!DOCTYPE svg PUBLIC "-//W3C//DTD SVG 20010904//EN"
 "http://www.w3.org/TR/2001/REC-SVG-20010904/DTD/svg10.dtd">
<svg version="1.0" xmlns="http://www.w3.org/2000/svg"
 width="358.000000pt" height="358.000000pt" viewBox="0 0 358.000000 358.000000"
 preserveAspectRatio="xMidYMid meet">
<metadata>
Created by potrace 1.11, written by Peter Selinger 2001-2013
</metadata>
<g transform="translate(0.000000,358.000000) scale(0.100000,-0.100000)"
fill="#000000" stroke="none">
<path d="M1522 3559 c-9 -3 -36 -5 -59 -4 -24 1 -43 -1 -43 -4 0 -4 -17 -6
-37 -6 -21 1 -42 -1 -48 -4 -5 -4 -21 -7 -35 -8 -23 -2 -61 -8 -115 -17 -11
-2 -20 -4 -20 -6 0 -1 -11 -4 -25 -5 -40 -6 -53 -10 -87 -28 -18 -10 -36 -17
-40 -18 -20 0 -138 -41 -151 -52 -8 -6 -16 -10 -16 -8 -2 8 -76 -21 -76 -30 0
-5 -6 -9 -13 -9 -18 0 -67 -24 -67 -32 0 -5 -6 -8 -14 -8 -7 0 -19 -7 -26 -15
-7 -8 -16 -12 -21 -9 -5 3 -9 1 -9 -3 0 -5 -13 -16 -29 -26 -39 -23 -200 -187
-184 -187 3 0 -7 -14 -21 -31 -14 -17 -26 -34 -26 -39 0 -5 -12 -22 -26 -39
-14 -17 -27 -37 -28 -43 -2 -7 -15 -39 -30 -71 -14 -32 -28 -66 -29 -75 -4
-27 -20 -48 -42 -56 -18 -7 -18 -8 -3 -17 13 -7 15 -15 8 -39 -5 -17 -9 -33
-9 -35 -1 -3 -2 -7 -2 -10 -1 -3 -2 -13 -3 -22 -1 -10 -4 -23 -8 -29 -4 -5 -5
-19 -4 -30 2 -10 1 -23 -2 -29 -4 -5 -8 -28 -9 -50 -5 -66 -11 -120 -13 -120
-9 0 -18 -555 -10 -560 3 -2 6 -36 5 -74 -1 -39 2 -71 5 -71 3 0 6 -19 8 -42
2 -64 8 -111 15 -128 3 -8 8 -31 11 -50 6 -45 14 -78 20 -88 3 -5 8 -24 11
-42 3 -18 9 -38 13 -44 3 -6 7 -16 8 -21 1 -6 16 -45 33 -87 42 -99 138 -245
209 -315 64 -63 182 -159 182 -147 0 4 8 1 18 -7 16 -14 52 -34 110 -65 15 -8
35 -14 44 -14 9 0 20 -4 23 -10 3 -5 14 -10 23 -10 44 -1 46 -10 49 -212 3
-222 3 -219 16 -235 5 -7 6 -13 3 -13 -15 0 29 -58 55 -74 43 -26 65 -27 113
-7 39 17 142 101 123 101 -4 0 10 17 30 38 21 21 58 62 83 90 25 29 58 66 73
82 16 17 25 30 21 30 -4 0 12 17 35 38 40 36 47 39 95 35 83 -6 364 -5 456 2
138 10 245 21 245 25 0 1 14 3 30 5 17 2 42 6 58 9 15 3 39 9 55 12 15 3 36 7
47 8 19 3 28 6 73 23 9 3 26 7 37 9 31 4 49 9 60 15 14 8 68 23 78 21 4 -1 7
3 7 9 0 5 4 8 9 5 11 -7 205 91 236 120 14 13 25 20 25 17 0 -3 14 8 30 26 17
17 34 31 38 31 11 0 57 53 54 63 -1 4 2 7 8 7 25 0 189 268 173 283 -3 4 -1 7
5 7 7 0 12 4 12 9 0 5 5 22 12 38 6 15 13 35 14 43 5 32 13 60 19 70 4 6 8 20
11 33 2 12 6 33 10 47 7 30 13 76 19 145 3 28 7 68 9 90 14 115 18 211 17 415
0 216 -3 281 -16 380 -11 91 -18 131 -30 185 -3 17 -7 36 -7 43 -1 6 -4 12 -8
12 -3 0 -6 10 -7 23 -1 29 -10 67 -22 92 -5 11 -23 57 -41 102 -17 45 -44 101
-58 125 -15 24 -34 56 -42 72 -13 26 -166 186 -201 211 -50 36 -99 64 -99 58
0 -5 -4 -3 -8 4 -9 14 -162 86 -162 76 0 -4 -5 -2 -12 5 -7 7 -20 12 -30 12
-10 0 -18 4 -18 10 0 5 -3 9 -7 8 -10 -2 -64 13 -78 21 -5 3 -14 6 -20 6 -5 1
-30 7 -55 14 -52 15 -77 21 -105 25 -11 2 -20 5 -20 6 0 1 -16 3 -35 5 -19 2
-35 4 -35 5 0 1 -13 4 -30 6 -16 1 -52 6 -80 9 -128 16 -648 27 -683 14z"/>
</g>
</svg>
